# xmcd
#
# Track frame offsets:
#	150
#	15089
#	31699
#	46560
#	62669
#	83395
#	100131
#	117629
#	131497
#	146436
#	163046
#	177907
#	194016
#	214742
#	231478
#	248976
#
# Disc length: 3504 seconds
#
# Revision: 1
# Processed by: cddbd v1.5.2PL0 Copyright (c) Steve Scherf et al.
# Submitted via: audiograbber 1.83.01
#
DISCID=ce0dae10
DTITLE=CB60473M - Chartbuster Hot Hits Oct 2011
DYEAR=2011
DGENRE=Karaoke
TTITLE0=Lady Antebellum - We Owned The Night
TTITLE1=Moore, Justin - Bait A Hook
TTITLE2=Templeton, Glen - I Could Be The One
TTITLE3=Morgan, Craig - This Ole Boy
TTITLE4=Shelton, Blake - Kiss My Country Ass
TTITLE5=Atkins, Rodney - Take a Back Road
TTITLE6=Bryan, Luke - I Don't Want This Night To End
TTITLE7=Ford, Colt Ft. Dallas Davidson - Country Thang
TTITLE8=Wvocal - We Owned The Night
TTITLE9=Wvocal - Bait A Hook
TTITLE10=Wvocal - I Could Be The One
TTITLE11=Wvocal - This Ole Boy
TTITLE12=Wvocal - Kiss My Country Ass
TTITLE13=Wvocal - Take a Back Road
TTITLE14=Wvocal - I Don't Want This Night To End
TTITLE15=Wvocal - Country Thang
EXTD=
EXTT0=
EXTT1=
EXTT2=
EXTT3=
EXTT4=
EXTT5=
EXTT6=
EXTT7=
EXTT8=
EXTT9=
EXTT10=
EXTT11=
EXTT12=
EXTT13=
EXTT14=
EXTT15=
PLAYORDER=
